<svg width="82" height="89" viewBox="0 0 82 89" fill="none" xmlns="http://www.w3.org/2000/svg">
<path d="M74.2516 88.84C73.1768 88.84 72.2095 88.5733 71.3496 88.04C70.4898 87.5067 69.8449 86.7422 69.415 85.7467C60.4582 84.5378 52.6121 80.8222 45.8767 74.6C39.1412 68.3778 34.3762 60.3956 31.5817 50.6533C24.2013 53.64 18.2899 58.4222 13.8473 65C9.4048 71.5778 7.00439 79.0267 6.64612 87.3467H0.197266C0.483881 77.6044 3.31421 68.8756 8.68826 61.16C14.0623 53.4444 21.2277 47.88 30.1844 44.4667C28.6797 36.2178 28.6618 28.7333 30.1307 22.0133C31.5996 15.2933 34.3762 9.90666 38.4605 5.85332V5.42666C38.4605 3.93332 38.98 2.6711 40.0189 1.63999C41.0579 0.608878 42.3298 0.0933228 43.8345 0.0933228C45.3393 0.0933228 46.6111 0.608878 47.6501 1.63999C48.6891 2.6711 49.2086 3.93332 49.2086 5.42666C49.2086 6.91999 48.6891 8.18221 47.6501 9.21332C46.6111 10.2444 45.3393 10.76 43.8345 10.76H43.1896C42.9747 10.76 42.7597 10.7244 42.5447 10.6533C40.0369 13.5689 38.2634 16.52 37.2244 19.5067C36.1855 22.4933 35.6301 26.1911 35.5585 30.6C37.8514 27.6133 40.9684 25.3733 44.9093 23.88C48.8503 22.3867 53.5078 21.64 58.8819 21.64C59.885 21.64 60.8523 21.6578 61.7838 21.6933C62.7153 21.7289 63.4677 21.7822 64.0409 21.8533C64.5425 21.2844 65.1337 20.8578 65.8144 20.5733C66.4951 20.2889 67.2295 20.1467 68.0177 20.1467C69.5225 20.1467 70.7943 20.6622 71.8333 21.6933C72.8723 22.7244 73.3918 23.9867 73.3918 25.48C73.3918 26.9733 72.8723 28.2355 71.8333 29.2667C70.7943 30.2978 69.5225 30.8133 68.0177 30.8133C67.0862 30.8133 66.2085 30.5822 65.3844 30.12C64.5604 29.6578 63.8976 29.0355 63.396 28.2533C62.1779 28.1111 61.2285 28.04 60.5478 28.04H58.3444C52.1106 28.04 47.256 29.2489 43.7808 31.6667C40.3056 34.0844 38.3888 37.6044 38.0306 42.2267C40.5384 41.7289 43.1538 41.4444 45.8767 41.3733C48.5995 41.3022 51.609 41.4444 54.9051 41.8C55.4066 41.0178 56.0515 40.4133 56.8397 39.9867C57.6279 39.56 58.4878 39.3467 59.4193 39.3467C60.924 39.3467 62.1958 39.8622 63.2348 40.8933C64.2738 41.9244 64.7933 43.1867 64.7933 44.68C64.7933 46.1733 64.2738 47.4355 63.2348 48.4667C62.1958 49.4978 60.924 50.0133 59.4193 50.0133C58.5594 50.0133 57.7891 49.8356 57.1084 49.48C56.4277 49.1244 55.8007 48.6267 55.2275 47.9867C52.3613 47.6311 49.4235 47.5244 46.4141 47.6667C43.4046 47.8089 40.7534 48.1289 38.4605 48.6267C39.392 52.04 41.3804 54.5644 44.4257 56.2C47.471 57.8356 51.6806 58.6533 57.0547 58.6533C58.9893 58.6533 61.1748 58.5289 63.611 58.28C66.0472 58.0311 68.6268 57.6578 71.3496 57.16C71.7079 56.0933 72.3528 55.24 73.2843 54.6C74.2158 53.96 75.2548 53.64 76.4012 53.64C77.906 53.64 79.1778 54.1556 80.2168 55.1867C81.2558 56.2178 81.7753 57.48 81.7753 58.9733C81.7753 60.4667 81.2558 61.7289 80.2168 62.76C79.1778 63.7911 77.906 64.3067 76.4012 64.3067C75.828 64.3067 75.2906 64.2356 74.789 64.0933C74.2874 63.9511 73.8217 63.7378 73.3918 63.4533C70.1673 64.0222 67.1937 64.4311 64.4709 64.68C61.748 64.9289 59.2759 65.0533 57.0547 65.0533C54.6184 65.0533 52.3255 64.8933 50.1759 64.5733C48.0263 64.2533 46.0558 63.7378 44.2644 63.0267C47.4889 67.8622 51.3761 71.6844 55.9261 74.4933C60.4762 77.3022 65.4382 78.9556 70.8122 79.4533C71.3138 79.0978 71.8512 78.7956 72.4244 78.5467C72.9977 78.2978 73.6067 78.1733 74.2516 78.1733C75.7564 78.1733 77.0282 78.6889 78.0672 79.72C79.1062 80.7511 79.6257 82.0133 79.6257 83.5067C79.6257 85 79.1062 86.2622 78.0672 87.2933C77.0282 88.3244 75.7564 88.84 74.2516 88.84Z" fill="#FDD231"/>
</svg>
