<svg width="129" height="128" viewBox="0 0 129 128" fill="none" xmlns="http://www.w3.org/2000/svg">
<mask id="mask0_635_65" style="mask-type:alpha" maskUnits="userSpaceOnUse" x="0" y="0" width="129" height="128">
<rect x="0.5" width="128" height="128" fill="#D9D9D9"/>
</mask>
<g mask="url(#mask0_635_65)">
<path d="M104.693 119.2C103.349 119.2 102.14 118.867 101.065 118.2C99.9907 117.533 99.1845 116.578 98.6471 115.333C87.4512 113.822 77.6436 109.178 69.2242 101.4C60.8049 93.6222 54.8487 83.6444 51.3555 71.4666C42.1301 75.1999 34.7408 81.1777 29.1876 89.3999C23.6344 97.6222 20.6339 106.933 20.1861 117.333H12.125C12.4833 105.156 16.0212 94.2444 22.7387 84.5999C29.4563 74.9555 38.413 67.9999 49.609 63.7333C47.7281 53.4222 47.7057 44.0666 49.5418 35.6666C51.3779 27.2666 54.8487 20.5333 59.954 15.4666V14.9333C59.954 13.0666 60.6034 11.4888 61.9021 10.1999C63.2008 8.91105 64.7907 8.2666 66.6716 8.2666C68.5525 8.2666 70.1423 8.91105 71.441 10.1999C72.7398 11.4888 73.3891 13.0666 73.3891 14.9333C73.3891 16.7999 72.7398 18.3777 71.441 19.6666C70.1423 20.9555 68.5525 21.5999 66.6716 21.5999H65.8655C65.5968 21.5999 65.3281 21.5555 65.0594 21.4666C61.9245 25.111 59.7077 28.7999 58.409 32.5333C57.1102 36.2666 56.4161 40.8888 56.3265 46.3999C59.1927 42.6666 63.0889 39.8666 68.0151 37.9999C72.9413 36.1333 78.7632 35.1999 85.4807 35.1999C86.7347 35.1999 87.9438 35.2222 89.1082 35.2666C90.2726 35.311 91.213 35.3777 91.9296 35.4666C92.5566 34.7555 93.2955 34.2222 94.1464 33.8666C94.9973 33.511 95.9153 33.3333 96.9006 33.3333C98.7815 33.3333 100.371 33.9777 101.67 35.2666C102.969 36.5555 103.618 38.1333 103.618 39.9999C103.618 41.8666 102.969 43.4444 101.67 44.7333C100.371 46.0222 98.7815 46.6666 96.9006 46.6666C95.7362 46.6666 94.639 46.3777 93.609 45.7999C92.5789 45.2222 91.7504 44.4444 91.1235 43.4666C89.6008 43.2888 88.4141 43.1999 87.5632 43.1999H84.809C77.0166 43.1999 70.9484 44.711 66.6044 47.7333C62.2604 50.7555 59.8644 55.1555 59.4166 60.9333C62.5515 60.3111 65.8207 59.9555 69.2242 59.8666C72.6278 59.7777 76.3896 59.9555 80.5097 60.3999C81.1367 59.4222 81.9428 58.6666 82.9281 58.1333C83.9133 57.5999 84.9881 57.3333 86.1525 57.3333C88.0334 57.3333 89.6232 57.9777 90.922 59.2666C92.2207 60.5555 92.87 62.1333 92.87 63.9999C92.87 65.8666 92.2207 67.4444 90.922 68.7333C89.6232 70.0222 88.0334 70.6666 86.1525 70.6666C85.0777 70.6666 84.1148 70.4444 83.2639 69.9999C82.413 69.5555 81.6293 68.9333 80.9128 68.1333C77.3301 67.6888 73.6578 67.5555 69.896 67.7333C66.1342 67.9111 62.8202 68.3111 59.954 68.9333C61.1184 73.1999 63.6039 76.3555 67.4105 78.3999C71.2171 80.4444 76.4792 81.4666 83.1968 81.4666C85.6151 81.4666 88.3469 81.3111 91.3922 80.9999C94.4375 80.6888 97.6619 80.2222 101.065 79.5999C101.513 78.2666 102.319 77.1999 103.484 76.3999C104.648 75.5999 105.947 75.1999 107.38 75.1999C109.261 75.1999 110.851 75.8444 112.149 77.1333C113.448 78.4222 114.098 79.9999 114.098 81.8666C114.098 83.7333 113.448 85.3111 112.149 86.5999C110.851 87.8888 109.261 88.5333 107.38 88.5333C106.663 88.5333 105.992 88.4444 105.365 88.2666C104.738 88.0888 104.156 87.8222 103.618 87.4666C99.5876 88.1777 95.8705 88.6888 92.467 88.9999C89.0634 89.3111 85.9734 89.4666 83.1968 89.4666C80.1515 89.4666 77.2853 89.2666 74.5983 88.8666C71.9113 88.4666 69.4482 87.8222 67.209 86.9333C71.2395 92.9777 76.0985 97.7555 81.7861 101.267C87.4736 104.778 93.6762 106.844 100.394 107.467C101.021 107.022 101.692 106.644 102.409 106.333C103.126 106.022 103.887 105.867 104.693 105.867C106.574 105.867 108.164 106.511 109.462 107.8C110.761 109.089 111.41 110.667 111.41 112.533C111.41 114.4 110.761 115.978 109.462 117.267C108.164 118.556 106.574 119.2 104.693 119.2Z" fill="#FDD231"/>
</g>
</svg>
