<svg width="101" height="100" viewBox="0 0 101 100" fill="none" xmlns="http://www.w3.org/2000/svg">
<mask id="mask0_635_85" style="mask-type:alpha" maskUnits="userSpaceOnUse" x="0" y="0" width="101" height="100">
<rect x="0.5" width="100" height="100" fill="#D9D9D9"/>
</mask>
<g mask="url(#mask0_635_85)">
<path d="M61.3333 47.7083C60.0139 47.7083 58.9028 47.2569 58 46.3542C57.0972 45.4514 56.6458 44.3403 56.6458 43.0208C56.6458 41.7014 57.0972 40.5903 58 39.6875C58.9028 38.7847 60.0139 38.3333 61.3333 38.3333C62.6528 38.3333 63.7639 38.7847 64.6667 39.6875C65.5694 40.5903 66.0208 41.7014 66.0208 43.0208C66.0208 44.3403 65.5694 45.4514 64.6667 46.3542C63.7639 47.2569 62.6528 47.7083 61.3333 47.7083ZM39.5625 47.7083C38.2431 47.7083 37.1319 47.2569 36.2292 46.3542C35.3264 45.4514 34.875 44.3403 34.875 43.0208C34.875 41.7014 35.3264 40.5903 36.2292 39.6875C37.1319 38.7847 38.2431 38.3333 39.5625 38.3333C40.8819 38.3333 41.9931 38.7847 42.8958 39.6875C43.7986 40.5903 44.25 41.7014 44.25 43.0208C44.25 44.3403 43.7986 45.4514 42.8958 46.3542C41.9931 47.2569 40.8819 47.7083 39.5625 47.7083ZM50.5 70.2083C46.6111 70.2083 43.0694 69.1667 39.875 67.0833C36.6806 65 34.1806 62.2569 32.375 58.8542H68.625C66.8194 62.2569 64.3194 65 61.125 67.0833C57.9306 69.1667 54.3889 70.2083 50.5 70.2083ZM50.5 87.5C45.3611 87.5 40.5174 86.5104 35.9688 84.5312C31.4201 82.5521 27.4444 79.8611 24.0417 76.4583C20.6389 73.0556 17.9479 69.0799 15.9688 64.5312C13.9896 59.9826 13 55.1389 13 50C13 44.8611 13.9896 40.0174 15.9688 35.4688C17.9479 30.9201 20.6389 26.9444 24.0417 23.5417C27.4444 20.1389 31.4201 17.4479 35.9688 15.4688C40.5174 13.4896 45.3611 12.5 50.5 12.5C55.6389 12.5 60.4826 13.4896 65.0312 15.4688C69.5799 17.4479 73.5556 20.1389 76.9583 23.5417C80.3611 26.9444 83.0521 30.9201 85.0312 35.4688C87.0104 40.0174 88 44.8611 88 50C88 55.1389 87.0104 59.9826 85.0312 64.5312C83.0521 69.0799 80.3611 73.0556 76.9583 76.4583C73.5556 79.8611 69.5799 82.5521 65.0312 84.5312C60.4826 86.5104 55.6389 87.5 50.5 87.5ZM50.5 81.25C59.0417 81.25 66.3854 78.2118 72.5312 72.1354C78.6771 66.059 81.75 58.75 81.75 50.2083C81.75 41.6667 78.7292 34.2014 72.6875 27.8125C66.6458 21.4236 59.1806 18.2292 50.2917 18.2292H48.4167C47.9306 18.2292 47.3056 18.2639 46.5417 18.3333C46.4028 18.8889 46.2812 19.5486 46.1771 20.3125C46.0729 21.0764 46.0208 21.7361 46.0208 22.2917C46.0208 24.0278 46.5938 25.4688 47.7396 26.6146C48.8854 27.7604 50.3264 28.3333 52.0625 28.3333C52.8958 28.3333 53.5903 28.2812 54.1458 28.1771C54.7014 28.0729 55.2222 28.0208 55.7083 28.0208C56.4028 28.0208 56.9931 28.1944 57.4792 28.5417C57.9653 28.8889 58.2083 29.4097 58.2083 30.1042C58.2083 31.2153 57.6875 32.066 56.6458 32.6562C55.6042 33.2465 54.0764 33.5417 52.0625 33.5417C48.8681 33.5417 46.1944 32.4653 44.0417 30.3125C41.8889 28.1597 40.8125 25.4861 40.8125 22.2917C40.8125 21.9444 40.8299 21.4931 40.8646 20.9375C40.8993 20.3819 40.9861 19.9306 41.125 19.5833C34.8056 21.875 29.5799 25.6944 25.4479 31.0417C21.316 36.3889 19.25 42.6389 19.25 49.7917C19.25 58.3333 22.3229 65.7118 28.4688 71.9271C34.6146 78.1424 41.9583 81.25 50.5 81.25Z" fill="#58A700"/>
</g>
</svg>
