<svg width="61" height="61" viewBox="0 0 61 61" fill="none" xmlns="http://www.w3.org/2000/svg">
<path d="M39.1667 28.6667C38.1111 28.6667 37.2222 28.3056 36.5 27.5833C35.7778 26.8611 35.4167 25.9722 35.4167 24.9167C35.4167 23.8611 35.7778 22.9722 36.5 22.25C37.2222 21.5278 38.1111 21.1667 39.1667 21.1667C40.2222 21.1667 41.1111 21.5278 41.8333 22.25C42.5556 22.9722 42.9167 23.8611 42.9167 24.9167C42.9167 25.9722 42.5556 26.8611 41.8333 27.5833C41.1111 28.3056 40.2222 28.6667 39.1667 28.6667ZM21.75 28.6667C20.6944 28.6667 19.8056 28.3056 19.0833 27.5833C18.3611 26.8611 18 25.9722 18 24.9167C18 23.8611 18.3611 22.9722 19.0833 22.25C19.8056 21.5278 20.6944 21.1667 21.75 21.1667C22.8056 21.1667 23.6944 21.5278 24.4167 22.25C25.1389 22.9722 25.5 23.8611 25.5 24.9167C25.5 25.9722 25.1389 26.8611 24.4167 27.5833C23.6944 28.3056 22.8056 28.6667 21.75 28.6667ZM30.5 46.6667C27.3889 46.6667 24.5556 45.8333 22 44.1667C19.4444 42.5 17.4444 40.3056 16 37.5833H45C43.5556 40.3056 41.5556 42.5 39 44.1667C36.4444 45.8333 33.6111 46.6667 30.5 46.6667ZM30.5 60.5C26.3889 60.5 22.5139 59.7083 18.875 58.125C15.2361 56.5417 12.0556 54.3889 9.33333 51.6667C6.61111 48.9444 4.45833 45.7639 2.875 42.125C1.29167 38.4861 0.5 34.6111 0.5 30.5C0.5 26.3889 1.29167 22.5139 2.875 18.875C4.45833 15.2361 6.61111 12.0556 9.33333 9.33333C12.0556 6.61111 15.2361 4.45833 18.875 2.875C22.5139 1.29167 26.3889 0.5 30.5 0.5C34.6111 0.5 38.4861 1.29167 42.125 2.875C45.7639 4.45833 48.9444 6.61111 51.6667 9.33333C54.3889 12.0556 56.5417 15.2361 58.125 18.875C59.7083 22.5139 60.5 26.3889 60.5 30.5C60.5 34.6111 59.7083 38.4861 58.125 42.125C56.5417 45.7639 54.3889 48.9444 51.6667 51.6667C48.9444 54.3889 45.7639 56.5417 42.125 58.125C38.4861 59.7083 34.6111 60.5 30.5 60.5ZM30.5 55.5C37.3333 55.5 43.2083 53.0694 48.125 48.2083C53.0417 43.3472 55.5 37.5 55.5 30.6667C55.5 23.8333 53.0833 17.8611 48.25 12.75C43.4167 7.63889 37.4444 5.08333 30.3333 5.08333H28.8333C28.4444 5.08333 27.9444 5.11111 27.3333 5.16667C27.2222 5.61111 27.125 6.13889 27.0417 6.75C26.9583 7.36111 26.9167 7.88889 26.9167 8.33333C26.9167 9.72222 27.375 10.875 28.2917 11.7917C29.2083 12.7083 30.3611 13.1667 31.75 13.1667C32.4167 13.1667 32.9722 13.125 33.4167 13.0417C33.8611 12.9583 34.2778 12.9167 34.6667 12.9167C35.2222 12.9167 35.6944 13.0556 36.0833 13.3333C36.4722 13.6111 36.6667 14.0278 36.6667 14.5833C36.6667 15.4722 36.25 16.1528 35.4167 16.625C34.5833 17.0972 33.3611 17.3333 31.75 17.3333C29.1944 17.3333 27.0556 16.4722 25.3333 14.75C23.6111 13.0278 22.75 10.8889 22.75 8.33333C22.75 8.05556 22.7639 7.69444 22.7917 7.25C22.8194 6.80556 22.8889 6.44444 23 6.16667C17.9444 8 13.7639 11.0556 10.4583 15.3333C7.15278 19.6111 5.5 24.6111 5.5 30.3333C5.5 37.1667 7.95833 43.0694 12.875 48.0417C17.7917 53.0139 23.6667 55.5 30.5 55.5Z" fill="#58A700"/>
</svg>
