<svg width="101" height="100" viewBox="0 0 101 100" fill="none" xmlns="http://www.w3.org/2000/svg">
<g id="help">
<mask id="mask0_635_91" style="mask-type:alpha" maskUnits="userSpaceOnUse" x="0" y="0" width="101" height="100">
<rect id="Bounding box" x="0.5" width="100" height="100" fill="#D9D9D9"/>
</mask>
<g mask="url(#mask0_635_91)">
<path id="help_2" d="M50.9166 74.2709C52.0277 74.2709 52.9652 73.8889 53.7291 73.125C54.493 72.3612 54.8749 71.4237 54.8749 70.3125C54.8749 69.2014 54.493 68.2639 53.7291 67.5C52.9652 66.7362 52.0277 66.3542 50.9166 66.3542C49.8055 66.3542 48.868 66.7362 48.1041 67.5C47.3402 68.2639 46.9583 69.2014 46.9583 70.3125C46.9583 71.4237 47.3402 72.3612 48.1041 73.125C48.868 73.8889 49.8055 74.2709 50.9166 74.2709ZM47.2708 59.0625H53.4166C53.4166 57.257 53.6423 55.6077 54.0937 54.1146C54.5451 52.6216 55.9513 50.9028 58.3124 48.9584C60.4652 47.1528 61.993 45.382 62.8958 43.6459C63.7985 41.9098 64.2499 40 64.2499 37.9167C64.2499 34.2362 63.052 31.2848 60.6562 29.0625C58.2603 26.8403 55.0833 25.7292 51.1249 25.7292C47.7221 25.7292 44.7187 26.5799 42.1145 28.2813C39.5103 29.9827 37.618 32.3264 36.4374 35.3125L41.9583 37.3959C42.7221 35.4514 43.868 33.941 45.3958 32.8646C46.9235 31.7882 48.7291 31.25 50.8124 31.25C53.1735 31.25 55.0833 31.8924 56.5416 33.1771C57.9999 34.4618 58.7291 36.1112 58.7291 38.125C58.7291 39.6528 58.2777 41.0938 57.3749 42.448C56.4721 43.8021 55.1527 45.2084 53.4166 46.6667C51.3333 48.4723 49.7881 50.2605 48.7812 52.0313C47.7742 53.8021 47.2708 56.1459 47.2708 59.0625ZM50.4999 91.6667C44.8055 91.6667 39.4235 90.573 34.3541 88.3855C29.2846 86.198 24.8576 83.2119 21.0728 79.4271C17.2881 75.6424 14.302 71.2153 12.1145 66.1459C9.927 61.0764 8.83325 55.6945 8.83325 50C8.83325 44.2362 9.927 38.8195 12.1145 33.75C14.302 28.6806 17.2881 24.2709 21.0728 20.5209C24.8576 16.7709 29.2846 13.8021 34.3541 11.6146C39.4235 9.42712 44.8055 8.33337 50.4999 8.33337C56.2638 8.33337 61.6805 9.42712 66.7499 11.6146C71.8194 13.8021 76.2291 16.7709 79.9791 20.5209C83.7291 24.2709 86.6978 28.6806 88.8853 33.75C91.0728 38.8195 92.1666 44.2362 92.1666 50C92.1666 55.6945 91.0728 61.0764 88.8853 66.1459C86.6978 71.2153 83.7291 75.6424 79.9791 79.4271C76.2291 83.2119 71.8194 86.198 66.7499 88.3855C61.6805 90.573 56.2638 91.6667 50.4999 91.6667ZM50.4999 85.4167C60.361 85.4167 68.7291 81.9619 75.6041 75.0521C82.4791 68.1424 85.9166 59.7917 85.9166 50C85.9166 40.1389 82.4791 31.7709 75.6041 24.8959C68.7291 18.0209 60.361 14.5834 50.4999 14.5834C40.7083 14.5834 32.3576 18.0209 25.4478 24.8959C18.5381 31.7709 15.0833 40.1389 15.0833 50C15.0833 59.7917 18.5381 68.1424 25.4478 75.0521C32.3576 81.9619 40.7083 85.4167 50.4999 85.4167Z" fill="#58A700"/>
</g>
</g>
</svg>
