<svg width="67" height="67" viewBox="0 0 67 67" fill="none" xmlns="http://www.w3.org/2000/svg">
<path d="M34 53.0834C34.8889 53.0834 35.6389 52.7778 36.25 52.1667C36.8611 51.5556 37.1666 50.8056 37.1666 49.9167C37.1666 49.0278 36.8611 48.2778 36.25 47.6667C35.6389 47.0556 34.8889 46.75 34 46.75C33.1111 46.75 32.3611 47.0556 31.75 47.6667C31.1389 48.2778 30.8333 49.0278 30.8333 49.9167C30.8333 50.8056 31.1389 51.5556 31.75 52.1667C32.3611 52.7778 33.1111 53.0834 34 53.0834ZM31.0833 40.9167H36C36 39.4723 36.1805 38.1528 36.5416 36.9584C36.9028 35.7639 38.0278 34.3889 39.9166 32.8334C41.6389 31.3889 42.8611 29.9723 43.5833 28.5834C44.3055 27.1945 44.6666 25.6667 44.6666 24C44.6666 21.0556 43.7083 18.6945 41.7916 16.9167C39.875 15.1389 37.3333 14.25 34.1666 14.25C31.4444 14.25 29.0416 14.9306 26.9583 16.2917C24.875 17.6528 23.3611 19.5278 22.4166 21.9167L26.8333 23.5834C27.4444 22.0278 28.3611 20.8195 29.5833 19.9584C30.8055 19.0973 32.25 18.6667 33.9166 18.6667C35.8055 18.6667 37.3333 19.1806 38.5 20.2084C39.6666 21.2362 40.25 22.5556 40.25 24.1667C40.25 25.3889 39.8889 26.5417 39.1667 27.625C38.4444 28.7084 37.3889 29.8334 36 31C34.3333 32.4445 33.0972 33.875 32.2916 35.2917C31.4861 36.7084 31.0833 38.5834 31.0833 40.9167ZM33.6666 67C29.1111 67 24.8055 66.125 20.75 64.375C16.6944 62.625 13.1528 60.2362 10.125 57.2084C7.0972 54.1806 4.70831 50.6389 2.95831 46.5834C1.20831 42.5278 0.333313 38.2223 0.333313 33.6667C0.333313 29.0556 1.20831 24.7223 2.95831 20.6667C4.70831 16.6112 7.0972 13.0834 10.125 10.0834C13.1528 7.08337 16.6944 4.70837 20.75 2.95837C24.8055 1.20837 29.1111 0.333374 33.6666 0.333374C38.2778 0.333374 42.6111 1.20837 46.6667 2.95837C50.7222 4.70837 54.25 7.08337 57.25 10.0834C60.25 13.0834 62.625 16.6112 64.375 20.6667C66.125 24.7223 67 29.0556 67 33.6667C67 38.2223 66.125 42.5278 64.375 46.5834C62.625 50.6389 60.25 54.1806 57.25 57.2084C54.25 60.2362 50.7222 62.625 46.6667 64.375C42.6111 66.125 38.2778 67 33.6666 67ZM33.6666 62C41.5555 62 48.25 59.2362 53.75 53.7084C59.25 48.1806 62 41.5 62 33.6667C62 25.7778 59.25 19.0834 53.75 13.5834C48.25 8.08337 41.5555 5.33337 33.6666 5.33337C25.8333 5.33337 19.1528 8.08337 13.625 13.5834C8.0972 19.0834 5.33331 25.7778 5.33331 33.6667C5.33331 41.5 8.0972 48.1806 13.625 53.7084C19.1528 59.2362 25.8333 62 33.6666 62Z" fill="#58A700"/>
</svg>
