<svg width="295" height="287" viewBox="0 0 295 287" fill="none" xmlns="http://www.w3.org/2000/svg">
<path d="M184.55 83.2582C141.95 108.758 53.85 137.258 0.0500488 147.558C27.95 125.658 37.05 87.3583 67.05 67.4583C101.75 85.4583 146.15 95.0582 184.55 83.2582Z" fill="#4E099B"/>
<path d="M261.05 147.058C251.75 133.158 242.65 119.058 233.75 104.958C232.35 102.658 230.95 99.1582 231.55 96.8582C234.45 87.3582 225.65 84.8582 220.85 78.2582L231.95 68.5582C231.55 67.4582 231.05 66.4582 230.65 65.4582C236.65 61.1582 235.85 59.2582 230.45 49.1582C229.45 49.6582 228.45 50.0582 227.55 50.5582C219.55 66.9582 215.15 58.1582 211.25 64.4582C201.85 74.3582 180.45 102.658 165.25 128.058C177.15 175.258 209.75 148.358 226.85 180.758C231.65 189.658 245.65 186.258 254.05 185.858C268.35 184.058 265.05 155.858 261.05 147.058ZM225.15 106.758C225.15 106.758 226.05 110.658 220.25 110.858C220.25 110.858 221.35 113.158 220.25 115.258L210.15 95.5582L230.45 106.858C230.45 106.758 229.35 107.358 225.15 106.758Z" fill="#9069CD"/>
<path d="M294.95 156.158C294.75 184.558 285.65 210.558 270.55 235.558C250.15 240.858 228.45 242.758 205.15 243.358C273.65 227.858 300.75 145.458 271.75 85.2583C285.55 107.058 294.95 130.058 294.95 156.158Z" fill="#F9F5FF"/>
<path d="M50.45 213.758C80.05 308.758 221.45 304.358 274.65 238.158C260.05 244.158 180.65 254.858 153.65 237.458C111.25 235.758 72.15 214.158 60.65 171.158C55.25 182.558 51.45 194.858 50.15 207.458C49.55 209.158 50.25 213.858 50.45 213.758Z" fill="#F2EAFF"/>
<path d="M106.65 121.258C109.25 128.258 117.25 148.758 126.95 164.458V164.558C120.45 189.158 137.25 222.258 159.05 233.858C114.55 233.858 73.65 211.958 63.05 166.258C70.75 151.558 80.85 138.358 92.05 126.258C96.9501 124.658 101.75 122.958 106.65 121.258Z" fill="#9069CD"/>
<path d="M45.9501 213.658C45.4501 224.858 47.2501 235.858 49.2501 242.558C32.3501 216.458 19.7501 176.058 26.6501 145.858C46.1501 140.158 65.8501 134.758 85.0501 128.458C65.0501 152.258 45.2501 181.458 45.9501 213.658Z" fill="#8331DE"/>
<path d="M238.05 57.5583C249.45 50.4583 249.95 48.6583 243.35 40.2583C231.95 46.0583 231.35 47.8583 238.05 57.5583Z" fill="#9069CD"/>
<path d="M144.45 37.3582C155.95 56.4583 185.35 60.7582 208.45 61.7582C195.15 81.5582 165.75 85.7583 144.25 84.5583C142.75 84.4583 141.25 84.3582 139.75 84.2582C107.35 81.4582 61.75 68.5583 41.65 42.1582C58.75 48.0582 79.55 54.1582 95.95 48.8582L75.35 30.9583C91.45 40.1583 109.35 42.5583 128.45 41.5583L120.15 36.2583C128.35 37.0583 136.45 37.1582 144.45 37.3582Z" fill="#300163"/>
<path d="M251.25 46.1582C261.85 38.3582 261.85 38.3582 256.95 31.3582C244.75 37.4582 244.05 39.6582 251.25 46.1582Z" fill="#9069CD"/>
<path d="M271.65 27.9582C269.45 30.7582 266.35 32.9582 263.65 35.3582L261.25 34.7582C261.25 32.9582 260.65 30.6582 260.95 29.2582C262.45 26.0582 267.25 24.7582 270.05 22.8582C270.65 24.5582 272.25 27.1582 271.65 27.9582Z" fill="#9069CD"/>
<path d="M293.15 8.7583C280.45 12.6583 272.95 19.6583 275.75 24.5583L293.15 8.7583Z" fill="#9069CD"/>
<path d="M256.75 26.3582L230.25 32.5582C229.65 34.8582 223.05 59.2582 214.35 58.0582C192.05 57.5582 164.05 56.4582 149.05 37.5582C144.35 32.6582 149.05 23.2582 151.05 17.2582L128.45 0.358154L198.25 8.15815L256.75 26.3582Z" fill="#1C1B1F"/>
<path d="M190.25 83.8582C169.05 113.458 143.45 147.158 146.75 180.558C142.05 178.658 136.65 173.058 130.85 164.058C121.15 148.858 112.65 127.258 110.05 120.158V120.058C150.85 105.758 174.45 96.0582 190.45 83.6582" fill="#8331DE"/>
</svg>
