<svg width="139" height="138" viewBox="0 0 139 138" fill="none" xmlns="http://www.w3.org/2000/svg">
<g id="play_circle">
<mask id="mask0_632_143" style="mask-type:alpha" maskUnits="userSpaceOnUse" x="0" y="0" width="139" height="138">
<rect id="Bounding box" x="0.5" width="138" height="138" fill="#D9D9D9"/>
</mask>
<g mask="url(#mask0_632_143)">
<path id="play_circle_2" d="M55.5563 93.4375L93.9375 69L55.5563 44.5625V93.4375ZM69.5 126.5C61.6417 126.5 54.2146 124.991 47.2188 121.972C40.2229 118.953 34.1135 114.832 28.8906 109.609C23.6677 104.386 19.5469 98.2771 16.5281 91.2812C13.5094 84.2854 12 76.8583 12 69C12 61.0458 13.5094 53.5708 16.5281 46.575C19.5469 39.5792 23.6677 33.4937 28.8906 28.3188C34.1135 23.1437 40.2229 19.0469 47.2188 16.0281C54.2146 13.0094 61.6417 11.5 69.5 11.5C77.4542 11.5 84.9292 13.0094 91.925 16.0281C98.9208 19.0469 105.006 23.1437 110.181 28.3188C115.356 33.4937 119.453 39.5792 122.472 46.575C125.491 53.5708 127 61.0458 127 69C127 76.8583 125.491 84.2854 122.472 91.2812C119.453 98.2771 115.356 104.386 110.181 109.609C105.006 114.832 98.9208 118.953 91.925 121.972C84.9292 124.991 77.4542 126.5 69.5 126.5ZM69.5 117.875C83.1083 117.875 94.6562 113.107 104.144 103.572C113.631 94.0365 118.375 82.5125 118.375 69C118.375 55.3917 113.631 43.8438 104.144 34.3563C94.6562 24.8688 83.1083 20.125 69.5 20.125C55.9875 20.125 44.4635 24.8688 34.9281 34.3563C25.3927 43.8438 20.625 55.3917 20.625 69C20.625 82.5125 25.3927 94.0365 34.9281 103.572C44.4635 113.107 55.9875 117.875 69.5 117.875Z" fill="#FDD231"/>
</g>
</g>
</svg>
