<svg width="93" height="93" viewBox="0 0 93 93" fill="none" xmlns="http://www.w3.org/2000/svg">
<path d="M35.345 66.05L66.05 46.5L35.345 26.95V66.05ZM46.5 92.5C40.2133 92.5 34.2717 91.2925 28.675 88.8775C23.0783 86.4625 18.1908 83.1658 14.0125 78.9875C9.83417 74.8092 6.5375 69.9217 4.1225 64.325C1.7075 58.7283 0.5 52.7867 0.5 46.5C0.5 40.1367 1.7075 34.1567 4.1225 28.56C6.5375 22.9633 9.83417 18.095 14.0125 13.955C18.1908 9.815 23.0783 6.5375 28.675 4.1225C34.2717 1.7075 40.2133 0.5 46.5 0.5C52.8633 0.5 58.8433 1.7075 64.44 4.1225C70.0367 6.5375 74.905 9.815 79.045 13.955C83.185 18.095 86.4625 22.9633 88.8775 28.56C91.2925 34.1567 92.5 40.1367 92.5 46.5C92.5 52.7867 91.2925 58.7283 88.8775 64.325C86.4625 69.9217 83.185 74.8092 79.045 78.9875C74.905 83.1658 70.0367 86.4625 64.44 88.8775C58.8433 91.2925 52.8633 92.5 46.5 92.5ZM46.5 85.6C57.3867 85.6 66.625 81.7858 74.215 74.1575C81.805 66.5292 85.6 57.31 85.6 46.5C85.6 35.6133 81.805 26.375 74.215 18.785C66.625 11.195 57.3867 7.4 46.5 7.4C35.69 7.4 26.4708 11.195 18.8425 18.785C11.2142 26.375 7.4 35.6133 7.4 46.5C7.4 57.31 11.2142 66.5292 18.8425 74.1575C26.4708 81.7858 35.69 85.6 46.5 85.6Z" fill="#FDD231"/>
</svg>
