<svg width="48" height="48" viewBox="0 0 48 48" fill="none" xmlns="http://www.w3.org/2000/svg">
<g id="help / Normal">
<mask id="mask0_826_35" style="mask-type:alpha" maskUnits="userSpaceOnUse" x="0" y="0" width="48" height="48">
<rect id="Bounding box" width="48" height="48" fill="#D9D9D9"/>
</mask>
<g mask="url(#mask0_826_35)">
<path id="help" d="M23.9 36C24.6 36 25.1917 35.7583 25.675 35.275C26.1583 34.7917 26.4 34.2 26.4 33.5C26.4 32.8 26.1583 32.2083 25.675 31.725C25.1917 31.2417 24.6 31 23.9 31C23.2 31 22.6083 31.2417 22.125 31.725C21.6417 32.2083 21.4 32.8 21.4 33.5C21.4 34.2 21.6417 34.7917 22.125 35.275C22.6083 35.7583 23.2 36 23.9 36ZM22.1 28.3H25.8C25.8 27.2 25.925 26.3333 26.175 25.7C26.425 25.0667 27.1333 24.2 28.3 23.1C29.1667 22.2333 29.85 21.4083 30.35 20.625C30.85 19.8417 31.1 18.9 31.1 17.8C31.1 15.9333 30.4167 14.5 29.05 13.5C27.6833 12.5 26.0667 12 24.2 12C22.3 12 20.7583 12.5 19.575 13.5C18.3917 14.5 17.5667 15.7 17.1 17.1L20.4 18.4C20.5667 17.8 20.9417 17.15 21.525 16.45C22.1083 15.75 23 15.4 24.2 15.4C25.2667 15.4 26.0667 15.6917 26.6 16.275C27.1333 16.8583 27.4 17.5 27.4 18.2C27.4 18.8667 27.2 19.4917 26.8 20.075C26.4 20.6583 25.9 21.2 25.3 21.7C23.8333 23 22.9333 23.9833 22.6 24.65C22.2667 25.3167 22.1 26.5333 22.1 28.3ZM24 44C21.2333 44 18.6333 43.475 16.2 42.425C13.7667 41.375 11.65 39.95 9.85 38.15C8.05 36.35 6.625 34.2333 5.575 31.8C4.525 29.3667 4 26.7667 4 24C4 21.2333 4.525 18.6333 5.575 16.2C6.625 13.7667 8.05 11.65 9.85 9.85C11.65 8.05 13.7667 6.625 16.2 5.575C18.6333 4.525 21.2333 4 24 4C26.7667 4 29.3667 4.525 31.8 5.575C34.2333 6.625 36.35 8.05 38.15 9.85C39.95 11.65 41.375 13.7667 42.425 16.2C43.475 18.6333 44 21.2333 44 24C44 26.7667 43.475 29.3667 42.425 31.8C41.375 34.2333 39.95 36.35 38.15 38.15C36.35 39.95 34.2333 41.375 31.8 42.425C29.3667 43.475 26.7667 44 24 44ZM24 40C28.4667 40 32.25 38.45 35.35 35.35C38.45 32.25 40 28.4667 40 24C40 19.5333 38.45 15.75 35.35 12.65C32.25 9.55 28.4667 8 24 8C19.5333 8 15.75 9.55 12.65 12.65C9.55 15.75 8 19.5333 8 24C8 28.4667 9.55 32.25 12.65 35.35C15.75 38.45 19.5333 40 24 40Z" fill="#9069CD"/>
</g>
</g>
</svg>
