<svg width="129" height="128" viewBox="0 0 129 128" fill="none" xmlns="http://www.w3.org/2000/svg">
<mask id="mask0_635_53" style="mask-type:alpha" maskUnits="userSpaceOnUse" x="0" y="0" width="129" height="128">
<rect x="0.5" width="128" height="128" fill="#D9D9D9"/>
</mask>
<g mask="url(#mask0_635_53)">
<path d="M64.7666 85.3333L83.4333 66.6666C84.9444 65.1555 85.9222 63.3111 86.3666 61.1333C86.8111 58.9555 86.5888 56.8444 85.7 54.8C84.8111 52.7555 83.4777 51.1111 81.7 49.8666C79.9222 48.6222 77.9222 48 75.7 48C73.4777 48 71.4777 48.6888 69.7 50.0666C67.9222 51.4444 66.2777 52.8888 64.7666 54.4C63.1666 52.8888 61.5 51.4444 59.7666 50.0666C58.0333 48.6888 56.0555 48 53.8333 48C51.6111 48 49.5888 48.6 47.7666 49.8C45.9444 51 44.5888 52.6222 43.7 54.6666C42.8111 56.7111 42.6111 58.8222 43.1 61C43.5888 63.1777 44.5888 65.0666 46.1 66.6666L64.7666 85.3333ZM52.2333 117.333L49.5666 100.533C47.8777 99.9111 46.1 99.0666 44.2333 98C42.3666 96.9333 40.7222 95.8222 39.3 94.6666L23.5666 101.867L11.1666 80L25.5666 69.4666C25.3888 68.6666 25.2777 67.7555 25.2333 66.7333C25.1888 65.7111 25.1666 64.8 25.1666 64C25.1666 63.2 25.1888 62.2888 25.2333 61.2666C25.2777 60.2444 25.3888 59.3333 25.5666 58.5333L11.1666 48L23.5666 26.1333L39.3 33.3333C40.7222 32.1777 42.3666 31.0666 44.2333 30C46.1 28.9333 47.8777 28.1333 49.5666 27.6L52.2333 10.6666H76.7666L79.4333 27.4666C81.1222 28.0888 82.9222 28.9111 84.8333 29.9333C86.7444 30.9555 88.3666 32.0888 89.7 33.3333L105.433 26.1333L117.833 48L103.433 58.2666C103.611 59.1555 103.722 60.1111 103.767 61.1333C103.811 62.1555 103.833 63.1111 103.833 64C103.833 64.8888 103.811 65.8222 103.767 66.8C103.722 67.7777 103.611 68.7111 103.433 69.6L117.833 80L105.433 101.867L89.7 94.6666C88.2777 95.8222 86.6555 96.9555 84.8333 98.0666C83.0111 99.1777 81.2111 100 79.4333 100.533L76.7666 117.333H52.2333ZM58.6333 109.333H70.3666L72.2333 94.4C75.1666 93.6888 77.9444 92.5777 80.5666 91.0666C83.1888 89.5555 85.5666 87.7333 87.7 85.6L101.833 91.7333L107.167 82.1333L94.6333 72.9333C94.9888 71.4222 95.2777 69.9333 95.5 68.4666C95.7222 67 95.8333 65.5111 95.8333 64C95.8333 62.4888 95.7444 61 95.5666 59.5333C95.3888 58.0666 95.0777 56.5777 94.6333 55.0666L107.167 45.8666L101.833 36.2666L87.7 42.4C85.6555 40.0888 83.3444 38.1555 80.7666 36.6C78.1888 35.0444 75.3444 34.0444 72.2333 33.6L70.3666 18.6666H58.6333L56.7666 33.6C53.7444 34.2222 50.9222 35.2888 48.3 36.8C45.6777 38.3111 43.3444 40.1777 41.3 42.4L27.1666 36.2666L21.8333 45.8666L34.3666 55.0666C34.0111 56.5777 33.7222 58.0666 33.5 59.5333C33.2777 61 33.1666 62.4888 33.1666 64C33.1666 65.5111 33.2777 67 33.5 68.4666C33.7222 69.9333 34.0111 71.4222 34.3666 72.9333L21.8333 82.1333L27.1666 91.7333L41.3 85.6C43.4333 87.7333 45.8111 89.5555 48.4333 91.0666C51.0555 92.5777 53.8333 93.6888 56.7666 94.4L58.6333 109.333Z" fill="#58A700"/>
</g>
</svg>
