<svg width="86" height="86" viewBox="0 0 86 86" fill="none" xmlns="http://www.w3.org/2000/svg">
<path d="M43.5467 60.4L58.48 45.4666C59.6889 44.2577 60.4711 42.7822 60.8267 41.04C61.1822 39.2977 61.0045 37.6088 60.2934 35.9733C59.5822 34.3377 58.5156 33.0222 57.0934 32.0266C55.6711 31.0311 54.0711 30.5333 52.2934 30.5333C50.5156 30.5333 48.9156 31.0844 47.4934 32.1866C46.0711 33.2888 44.7556 34.4444 43.5467 35.6533C42.2667 34.4444 40.9334 33.2888 39.5467 32.1866C38.16 31.0844 36.5778 30.5333 34.8 30.5333C33.0222 30.5333 31.4045 31.0133 29.9467 31.9733C28.4889 32.9333 27.4045 34.2311 26.6934 35.8666C25.9822 37.5022 25.8222 39.1911 26.2134 40.9333C26.6045 42.6755 27.4045 44.1866 28.6134 45.4666L43.5467 60.4ZM33.52 86L31.3867 72.56C30.0356 72.0622 28.6134 71.3866 27.12 70.5333C25.6267 69.68 24.3111 68.7911 23.1734 67.8666L10.5867 73.6266L0.666687 56.1333L12.1867 47.7066C12.0445 47.0666 11.9556 46.3377 11.92 45.52C11.8845 44.7022 11.8667 43.9733 11.8667 43.3333C11.8667 42.6933 11.8845 41.9644 11.92 41.1466C11.9556 40.3288 12.0445 39.6 12.1867 38.96L0.666687 30.5333L10.5867 13.04L23.1734 18.8C24.3111 17.8755 25.6267 16.9866 27.12 16.1333C28.6134 15.28 30.0356 14.64 31.3867 14.2133L33.52 0.666626H53.1467L55.28 14.1066C56.6311 14.6044 58.0711 15.2622 59.6 16.08C61.1289 16.8977 62.4267 17.8044 63.4934 18.8L76.08 13.04L86 30.5333L74.48 38.7466C74.6222 39.4577 74.7111 40.2222 74.7467 41.04C74.7822 41.8577 74.8 42.6222 74.8 43.3333C74.8 44.0444 74.7822 44.7911 74.7467 45.5733C74.7111 46.3555 74.6222 47.1022 74.48 47.8133L86 56.1333L76.08 73.6266L63.4934 67.8666C62.3556 68.7911 61.0578 69.6977 59.6 70.5866C58.1422 71.4755 56.7022 72.1333 55.28 72.56L53.1467 86H33.52ZM38.64 79.6H48.0267L49.52 67.6533C51.8667 67.0844 54.0889 66.1955 56.1867 64.9866C58.2845 63.7777 60.1867 62.32 61.8934 60.6133L73.2 65.52L77.4667 57.84L67.44 50.48C67.7245 49.2711 67.9556 48.08 68.1333 46.9066C68.3111 45.7333 68.4 44.5422 68.4 43.3333C68.4 42.1244 68.3289 40.9333 68.1867 39.76C68.0445 38.5866 67.7956 37.3955 67.44 36.1866L77.4667 28.8266L73.2 21.1466L61.8934 26.0533C60.2578 24.2044 58.4089 22.6577 56.3467 21.4133C54.2845 20.1688 52.0089 19.3688 49.52 19.0133L48.0267 7.06663H38.64L37.1467 19.0133C34.7289 19.5111 32.4711 20.3644 30.3734 21.5733C28.2756 22.7822 26.4089 24.2755 24.7734 26.0533L13.4667 21.1466L9.20002 28.8266L19.2267 36.1866C18.9422 37.3955 18.7111 38.5866 18.5334 39.76C18.3556 40.9333 18.2667 42.1244 18.2667 43.3333C18.2667 44.5422 18.3556 45.7333 18.5334 46.9066C18.7111 48.08 18.9422 49.2711 19.2267 50.48L9.20002 57.84L13.4667 65.52L24.7734 60.6133C26.48 62.32 28.3822 63.7777 30.48 64.9866C32.5778 66.1955 34.8 67.0844 37.1467 67.6533L38.64 79.6Z" fill="#58A700"/>
</svg>
