<svg width="61" height="67" viewBox="0 0 61 67" fill="none" xmlns="http://www.w3.org/2000/svg">
<path d="M0.5 53.5834C0.5 52.905 0.725389 52.3326 1.17617 51.8663C1.62689 51.3999 2.17422 51.1667 2.81817 51.1667C3.16161 51.1667 3.47222 51.2362 3.75 51.375C4.02778 51.5139 4.30556 51.6667 4.58333 51.8334C5.25 52.2778 5.97222 52.625 6.75 52.875C7.52778 53.125 8.33333 53.25 9.16667 53.25C11.6667 53.25 13.7639 52.4028 15.4583 50.7084C17.1528 49.0139 18 46.9167 18 44.4167C18 41.9167 17.1528 39.8195 15.4583 38.125C13.7639 36.4306 11.6667 35.5834 9.16667 35.5834C8.35272 35.5834 7.56589 35.7084 6.80617 35.9584C6.0465 36.2084 5.30556 36.5556 4.58333 37C4.30556 37.1667 4.02778 37.3195 3.75 37.4584C3.47222 37.5973 3.16161 37.6667 2.81817 37.6667C2.17422 37.6667 1.62689 37.4335 1.17617 36.9671C0.725389 36.5008 0.5 35.9284 0.5 35.25V24.3334C0.5 23.5556 0.791667 22.875 1.375 22.2917C1.95833 21.7084 2.63889 21.4167 3.41667 21.4167H18.75C18.0278 20.3056 17.5139 19.1204 17.2083 17.8611C16.9028 16.6019 16.75 15.3427 16.75 14.0834C16.75 10.2639 18.0882 7.0174 20.7647 4.34379C23.4412 1.67018 26.6912 0.333374 30.5147 0.333374C34.3382 0.333374 37.5833 1.67018 40.25 4.34379C42.9167 7.0174 44.25 10.2639 44.25 14.0834C44.25 15.3427 44.0972 16.6019 43.7917 17.8611C43.4861 19.1204 42.9722 20.3056 42.25 21.4167H57.5833C58.3611 21.4167 59.0417 21.7084 59.625 22.2917C60.2083 22.875 60.5 23.5556 60.5 24.3334V35.25C60.5 35.9348 60.2737 36.5087 59.8212 36.972C59.3686 37.4351 58.8079 37.6667 58.1389 37.6667C57.8241 37.6667 57.5278 37.6019 57.25 37.4723C56.9722 37.3426 56.6944 37.1852 56.4167 37C55.75 36.5556 55.0278 36.2084 54.25 35.9584C53.4722 35.7084 52.6667 35.5834 51.8333 35.5834C49.3333 35.5834 47.2361 36.4306 45.5417 38.125C43.8472 39.8195 43 41.9167 43 44.4167C43 46.9167 43.8472 49.0139 45.5417 50.7084C47.2361 52.4028 49.3333 53.25 51.8333 53.25C52.6667 53.25 53.4722 53.125 54.25 52.875C55.0278 52.625 55.75 52.2778 56.4167 51.8334C56.6944 51.6667 56.9709 51.5139 57.246 51.375C57.5212 51.2362 57.8281 51.1667 58.1667 51.1667C58.8278 51.1667 59.3819 51.3983 59.8292 51.8615C60.2764 52.3247 60.5 52.8987 60.5 53.5834V64.0765C60.5 64.8588 60.2083 65.5417 59.625 66.125C59.0417 66.7084 58.3611 67 57.5833 67H3.41667C2.63889 67 1.95833 66.7084 1.375 66.125C0.791667 65.5417 0.5 64.8588 0.5 64.0765V53.5834ZM5.5 62H55.5V57.5834C54.8889 57.8612 54.2778 58.0417 53.6667 58.125C53.0556 58.2084 52.4337 58.25 51.8012 58.25C48.0058 58.25 44.7568 56.9028 42.0541 54.2084C39.3514 51.5139 38 48.25 38 44.4167C38 40.5834 39.3514 37.3195 42.0541 34.625C44.7568 31.9306 48.0058 30.5834 51.8012 30.5834C52.4337 30.5834 53.0556 30.625 53.6667 30.7084C54.2778 30.7917 54.8889 30.8889 55.5 31V26.4167H37.8333C37.2222 26.4167 36.6806 26.1806 36.2083 25.7084C35.7361 25.2362 35.5 24.6945 35.5 24.0834C35.5 23.3056 35.7361 22.5834 36.2083 21.9167C36.6806 21.25 37.1389 20.5834 37.5833 19.9167C38.1944 19.0278 38.625 18.0959 38.875 17.1209C39.125 16.1459 39.25 15.1334 39.25 14.0834C39.25 11.6334 38.4047 9.56254 36.7142 7.87088C35.0237 6.17921 32.9542 5.33337 30.5058 5.33337C28.0575 5.33337 25.9861 6.17921 24.2917 7.87088C22.5972 9.56254 21.75 11.6334 21.75 14.0834C21.75 15.1334 21.875 16.1459 22.125 17.1209C22.375 18.0959 22.8056 19.0278 23.4167 19.9167C23.8611 20.5834 24.3194 21.25 24.7917 21.9167C25.2639 22.5834 25.5 23.3056 25.5 24.0834C25.5 24.6945 25.2639 25.2362 24.7917 25.7084C24.3194 26.1806 23.7778 26.4167 23.1667 26.4167H5.5V31C6.11111 30.8889 6.72222 30.7917 7.33333 30.7084C7.94444 30.625 8.56628 30.5834 9.19883 30.5834C12.9942 30.5834 16.2432 31.9306 18.9459 34.625C21.6486 37.3195 23 40.5834 23 44.4167C23 48.25 21.6486 51.5139 18.9459 54.2084C16.2432 56.9028 12.9942 58.25 9.19883 58.25C8.56628 58.25 7.94444 58.2084 7.33333 58.125C6.72222 58.0417 6.11111 57.8612 5.5 57.5834V62Z" fill="#FDD231"/>
</svg>
