<svg width="101" height="100" viewBox="0 0 101 100" fill="none" xmlns="http://www.w3.org/2000/svg">
<mask id="mask0_696_397" style="mask-type:alpha" maskUnits="userSpaceOnUse" x="0" y="0" width="101" height="100">
<rect x="0.5" width="100" height="100" fill="#D9D9D9"/>
</mask>
<g mask="url(#mask0_696_397)">
<path d="M13 74.8959C13 74.0479 13.2817 73.3324 13.8452 72.7495C14.4086 72.1665 15.0928 71.875 15.8977 71.875C16.327 71.875 16.7153 71.9618 17.0625 72.1355C17.4097 72.3091 17.7569 72.5 18.1042 72.7084C18.9375 73.2639 19.8403 73.698 20.8125 74.0105C21.7847 74.323 22.7917 74.4792 23.8333 74.4792C26.9583 74.4792 29.5799 73.4202 31.6979 71.3021C33.816 69.1841 34.875 66.5625 34.875 63.4375C34.875 60.3125 33.816 57.691 31.6979 55.573C29.5799 53.4549 26.9583 52.3959 23.8333 52.3959C22.8159 52.3959 21.8324 52.5521 20.8827 52.8646C19.9331 53.1771 19.0069 53.6112 18.1042 54.1667C17.7569 54.375 17.4097 54.566 17.0625 54.7396C16.7153 54.9132 16.327 55 15.8977 55C15.0928 55 14.4086 54.7086 13.8452 54.1256C13.2817 53.5427 13 52.8272 13 51.9792V38.3334C13 37.3612 13.3646 36.5105 14.0938 35.7813C14.8229 35.0521 15.6736 34.6875 16.6458 34.6875H35.8125C34.9097 33.2987 34.2674 31.8172 33.8854 30.2431C33.5035 28.669 33.3125 27.095 33.3125 25.5209C33.3125 20.7466 34.9853 16.6884 38.3308 13.3464C41.6765 10.0044 45.739 8.33337 50.5183 8.33337C55.2978 8.33337 59.3542 10.0044 62.6875 13.3464C66.0208 16.6884 67.6875 20.7466 67.6875 25.5209C67.6875 27.095 67.4965 28.669 67.1146 30.2431C66.7326 31.8172 66.0903 33.2987 65.1875 34.6875H84.3542C85.3264 34.6875 86.1771 35.0521 86.9062 35.7813C87.6354 36.5105 88 37.3612 88 38.3334V51.9792C88 52.8351 87.7172 53.5526 87.1515 54.1316C86.5858 54.7106 85.8848 55 85.0486 55C84.6551 55 84.2847 54.919 83.9375 54.757C83.5903 54.5949 83.243 54.3982 82.8958 54.1667C82.0625 53.6112 81.1597 53.1771 80.1875 52.8646C79.2153 52.5521 78.2083 52.3959 77.1667 52.3959C74.0417 52.3959 71.4201 53.4549 69.3021 55.573C67.184 57.691 66.125 60.3125 66.125 63.4375C66.125 66.5625 67.184 69.1841 69.3021 71.3021C71.4201 73.4202 74.0417 74.4792 77.1667 74.4792C78.2083 74.4792 79.2153 74.323 80.1875 74.0105C81.1597 73.698 82.0625 73.2639 82.8958 72.7084C83.243 72.5 83.5886 72.3091 83.9325 72.1355C84.2765 71.9618 84.6601 71.875 85.0833 71.875C85.9097 71.875 86.6024 72.1645 87.1615 72.7435C87.7205 73.3225 88 74.04 88 74.8959V88.0122C88 88.9902 87.6354 89.8438 86.9062 90.573C86.1771 91.3021 85.3264 91.6667 84.3542 91.6667H16.6458C15.6736 91.6667 14.8229 91.3021 14.0938 90.573C13.3646 89.8438 13 88.9902 13 88.0122V74.8959ZM19.25 85.4167H81.75V79.8959C80.9861 80.2431 80.2222 80.4688 79.4583 80.573C78.6944 80.6771 77.9172 80.7292 77.1265 80.7292C72.3823 80.7292 68.321 79.0452 64.9426 75.6771C61.5642 72.3091 59.875 68.2292 59.875 63.4375C59.875 58.6459 61.5642 54.566 64.9426 51.198C68.321 47.8299 72.3823 46.1459 77.1265 46.1459C77.9172 46.1459 78.6944 46.198 79.4583 46.3021C80.2222 46.4063 80.9861 46.5278 81.75 46.6667V40.9375H59.6667C58.9028 40.9375 58.2257 40.6424 57.6354 40.0521C57.0451 39.4618 56.75 38.7848 56.75 38.0209C56.75 37.0487 57.0451 36.1459 57.6354 35.3125C58.2257 34.4792 58.7986 33.6459 59.3542 32.8125C60.1181 31.7014 60.6562 30.5365 60.9687 29.3178C61.2812 28.099 61.4375 26.8334 61.4375 25.5209C61.4375 22.4584 60.3809 19.8698 58.2677 17.7553C56.1546 15.6407 53.5678 14.5834 50.5073 14.5834C47.4469 14.5834 44.8576 15.6407 42.7396 17.7553C40.6215 19.8698 39.5625 22.4584 39.5625 25.5209C39.5625 26.8334 39.7188 28.099 40.0312 29.3178C40.3438 30.5365 40.8819 31.7014 41.6458 32.8125C42.2014 33.6459 42.7743 34.4792 43.3646 35.3125C43.9549 36.1459 44.25 37.0487 44.25 38.0209C44.25 38.7848 43.9549 39.4618 43.3646 40.0521C42.7743 40.6424 42.0972 40.9375 41.3333 40.9375H19.25V46.6667C20.0139 46.5278 20.7778 46.4063 21.5417 46.3021C22.3056 46.198 23.0828 46.1459 23.8735 46.1459C28.6177 46.1459 32.679 47.8299 36.0574 51.198C39.4358 54.566 41.125 58.6459 41.125 63.4375C41.125 68.2292 39.4358 72.3091 36.0574 75.6771C32.679 79.0452 28.6177 80.7292 23.8735 80.7292C23.0828 80.7292 22.3056 80.6771 21.5417 80.573C20.7778 80.4688 20.0139 80.2431 19.25 79.8959V85.4167Z" fill="#FDD231"/>
</g>
</svg>
