<svg width="80" height="57" viewBox="0 0 80 57" fill="none" xmlns="http://www.w3.org/2000/svg">
<path d="M40 56.0937C38 56.0937 36.25 55.3437 34.75 53.8437C33.25 52.3437 32.5 50.5937 32.5 48.5937C32.5 46.5937 33.25 44.8437 34.75 43.3437C36.25 41.8437 38 41.0937 40 41.0937C42 41.0937 43.75 41.8437 45.25 43.3437C46.75 44.8437 47.5 46.5937 47.5 48.5937C47.5 50.5937 46.75 52.3437 45.25 53.8437C43.75 55.3437 42 56.0937 40 56.0937ZM19.3333 36.927L14.0833 31.677C17.9722 27.7882 22.0417 24.8715 26.2917 22.927C30.5417 20.9826 35.1111 20.0104 40 20.0104C44.8889 20.0104 49.4583 20.9826 53.7083 22.927C57.9583 24.8715 62.0278 27.7882 65.9167 31.677L60.6667 36.927C57.2778 33.5382 53.8611 31.1215 50.4167 29.677C46.9722 28.2326 43.5 27.5104 40 27.5104C36.5 27.5104 33.0278 28.2326 29.5833 29.677C26.1389 31.1215 22.7222 33.5382 19.3333 36.927ZM5.25 22.8437L0 17.5937C5.16667 12.3159 11.1806 8.06593 18.0417 4.84371C24.9028 1.62149 32.2222 0.010376 40 0.010376C47.7778 0.010376 55.0972 1.62149 61.9583 4.84371C68.8194 8.06593 74.8333 12.3159 80 17.5937L74.75 22.8437C69.8611 18.177 64.5139 14.4548 58.7083 11.677C52.9028 8.89926 46.6667 7.51038 40 7.51038C33.3333 7.51038 27.0972 8.89926 21.2917 11.677C15.4861 14.4548 10.1389 18.177 5.25 22.8437Z" fill="#FDD231"/>
</svg>
