<svg width="101" height="100" viewBox="0 0 101 100" fill="none" xmlns="http://www.w3.org/2000/svg">
<mask id="mask0_635_97" style="mask-type:alpha" maskUnits="userSpaceOnUse" x="0" y="0" width="101" height="100">
<rect x="0.5" width="100" height="100" fill="#D9D9D9"/>
</mask>
<g mask="url(#mask0_635_97)">
<path d="M50.5 86.7708C48 86.7708 45.8125 85.8333 43.9375 83.9583C42.0625 82.0833 41.125 79.8958 41.125 77.3958C41.125 74.8958 42.0625 72.7083 43.9375 70.8333C45.8125 68.9583 48 68.0208 50.5 68.0208C53 68.0208 55.1875 68.9583 57.0625 70.8333C58.9375 72.7083 59.875 74.8958 59.875 77.3958C59.875 79.8958 58.9375 82.0833 57.0625 83.9583C55.1875 85.8333 53 86.7708 50.5 86.7708ZM24.6667 62.8125L18.1042 56.25C22.9653 51.3889 28.0521 47.743 33.3646 45.3125C38.6771 42.8819 44.3889 41.6666 50.5 41.6666C56.6111 41.6666 62.3229 42.8819 67.6354 45.3125C72.9479 47.743 78.0347 51.3889 82.8958 56.25L76.3333 62.8125C72.0972 58.5764 67.8264 55.5555 63.5208 53.75C59.2153 51.9444 54.875 51.0416 50.5 51.0416C46.125 51.0416 41.7847 51.9444 37.4792 53.75C33.1736 55.5555 28.9028 58.5764 24.6667 62.8125ZM7.0625 45.2083L0.5 38.6458C6.95833 32.0486 14.4757 26.7361 23.0521 22.7083C31.6285 18.6805 40.7778 16.6666 50.5 16.6666C60.2222 16.6666 69.3715 18.6805 77.9479 22.7083C86.5243 26.7361 94.0417 32.0486 100.5 38.6458L93.9375 45.2083C87.8264 39.375 81.1424 34.7222 73.8854 31.25C66.6285 27.7777 58.8333 26.0416 50.5 26.0416C42.1667 26.0416 34.3715 27.7777 27.1146 31.25C19.8576 34.7222 13.1736 39.375 7.0625 45.2083Z" fill="#FDD231"/>
</g>
</svg>
